<svg width="21" height="21" viewBox="0 0 21 21" fill="none" xmlns="http://www.w3.org/2000/svg">
<path d="M10.5 0C13.3526 0 13.7088 0.0104999 14.8285 0.0629999C15.9465 0.1155 16.7076 0.29085 17.3779 0.55125C18.0701 0.81795 18.6547 1.17915 19.2385 1.7619C19.7719 2.28679 20.1852 2.92172 20.4489 3.6225C20.7085 4.29135 20.8849 5.05365 20.937 6.1719C20.9865 7.2912 21 7.64715 21 10.5C21 13.3528 20.9899 13.7088 20.937 14.8281C20.8849 15.9463 20.7085 16.7076 20.4489 17.3775C20.186 18.0786 19.7727 18.7138 19.2385 19.2381C18.7127 19.7718 18.0785 20.1849 17.3779 20.4488C16.7084 20.7081 15.9465 20.8845 14.8285 20.937C13.7088 20.9864 13.3526 21 10.5 21C7.64735 21 7.29119 20.9895 6.17147 20.937C5.05343 20.8845 4.29239 20.7081 3.62207 20.4488C2.92151 20.1857 2.28648 19.7725 1.76148 19.2381C1.22808 18.7133 0.814804 18.0783 0.551044 17.3775C0.290645 16.7086 0.115077 15.9463 0.0629974 14.8281C0.0134374 13.7088 0 13.3528 0 10.5C0 7.64715 0.0100774 7.2912 0.0629974 6.1719C0.115077 5.0526 0.290645 4.2924 0.551044 3.6225C0.813964 2.92128 1.22724 2.28619 1.76148 1.7619C2.28648 1.22769 2.92151 0.814516 3.62207 0.55125C4.29239 0.29085 5.05259 0.1155 6.17147 0.0629999C7.29119 0.0136499 7.64735 0 10.5 0ZM10.5 5.25C9.10727 5.25 7.77251 5.80312 6.78803 6.78768C5.80271 7.77225 5.24999 9.10761 5.24999 10.5C5.24999 11.8924 5.80271 13.2277 6.78803 14.2123C7.77251 15.1969 9.10727 15.75 10.5 15.75C11.8927 15.75 13.2275 15.1969 14.2119 14.2123C15.1973 13.2277 15.75 11.8924 15.75 10.5C15.75 9.10761 15.1973 7.77225 14.2119 6.78768C13.2275 5.80312 11.8927 5.25 10.5 5.25ZM17.325 4.9875C17.325 4.6394 17.1864 4.30556 16.9403 4.05942C16.6941 3.81328 16.3607 3.675 16.0121 3.675C15.6643 3.675 15.3308 3.81328 15.0847 4.05942C14.8386 4.30556 14.7 4.6394 14.7 4.9875C14.7 5.33559 14.8386 5.66943 15.0847 5.91557C15.3308 6.16172 15.6643 6.3 16.0121 6.3C16.3607 6.3 16.6941 6.16172 16.9403 5.91557C17.1864 5.66943 17.325 5.33559 17.325 4.9875ZM10.5 7.35C11.3358 7.35 12.1363 7.68187 12.7277 8.27261C13.3182 8.86334 13.65 9.66453 13.65 10.5C13.65 11.3355 13.3182 12.1367 12.7277 12.7274C12.1363 13.3181 11.3358 13.65 10.5 13.65C9.66419 13.65 8.86368 13.3181 8.27232 12.7274C7.6818 12.1367 7.34999 11.3355 7.34999 10.5C7.34999 9.66453 7.6818 8.86334 8.27232 8.27261C8.86368 7.68187 9.66419 7.35 10.5 7.35Z" fill="white"/>
</svg>
