<svg width="19" height="19" viewBox="0 0 19 19" fill="none" xmlns="http://www.w3.org/2000/svg">
<path d="M9.3502 0C11.8905 0 12.2076 0.00935012 13.2047 0.0561011C14.2003 0.102852 14.878 0.259001 15.475 0.490886C16.0913 0.728381 16.6119 1.05003 17.1318 1.56896C17.6068 2.03638 17.9748 2.60178 18.2097 3.22582C18.4408 3.82143 18.5979 4.50025 18.6443 5.49605C18.6884 6.49278 18.7004 6.80975 18.7004 9.3502C18.7004 11.8906 18.6914 12.2076 18.6443 13.2044C18.5979 14.2001 18.4408 14.878 18.2097 15.4746C17.9756 16.099 17.6075 16.6645 17.1318 17.1314C16.6636 17.6067 16.0988 17.9746 15.475 18.2096C14.8788 18.4405 14.2003 18.5975 13.2047 18.6443C12.2076 18.6883 11.8905 18.7004 9.3502 18.7004C6.80994 18.7004 6.49278 18.6911 5.49567 18.6443C4.50006 18.5975 3.82236 18.4405 3.22544 18.2096C2.6016 17.9753 2.0361 17.6073 1.56859 17.1314C1.0936 16.6641 0.72558 16.0987 0.490703 15.4746C0.258818 14.8789 0.102476 14.2001 0.0560989 13.2044C0.011966 12.2076 0 11.8906 0 9.3502C0 6.80975 0.00897391 6.49278 0.0560989 5.49605C0.102476 4.49932 0.258818 3.82236 0.490703 3.22582C0.724832 2.60139 1.09285 2.03584 1.56859 1.56896C2.0361 1.09326 2.6016 0.725323 3.22544 0.490886C3.82236 0.259001 4.49932 0.102852 5.49567 0.0561011C6.49278 0.0121552 6.80994 0 9.3502 0ZM9.3502 4.6751C8.10999 4.6751 6.92139 5.16765 6.04471 6.0444C5.16729 6.92115 4.6751 8.11029 4.6751 9.3502C4.6751 10.5901 5.16729 11.7792 6.04471 12.656C6.92139 13.5327 8.10999 14.0253 9.3502 14.0253C10.5904 14.0253 11.779 13.5327 12.6557 12.656C13.5331 11.7792 14.0253 10.5901 14.0253 9.3502C14.0253 8.11029 13.5331 6.92115 12.6557 6.0444C11.779 5.16765 10.5904 4.6751 9.3502 4.6751ZM15.4278 4.44135C15.4278 4.13137 15.3044 3.83408 15.0852 3.6149C14.8661 3.39571 14.5691 3.27257 14.2587 3.27257C13.949 3.27257 13.652 3.39571 13.4329 3.6149C13.2137 3.83408 13.0903 4.13137 13.0903 4.44135C13.0903 4.75132 13.2137 5.04861 13.4329 5.26779C13.652 5.48698 13.949 5.61012 14.2587 5.61012C14.5691 5.61012 14.8661 5.48698 15.0852 5.26779C15.3044 5.04861 15.4278 4.75132 15.4278 4.44135ZM9.3502 6.54514C10.0945 6.54514 10.8073 6.84067 11.3339 7.36672C11.8598 7.89277 12.1553 8.60622 12.1553 9.3502C12.1553 10.0942 11.8598 10.8076 11.3339 11.3337C10.8073 11.8597 10.0945 12.1553 9.3502 12.1553C8.60592 12.1553 7.89307 11.8597 7.36647 11.3337C6.84061 10.8076 6.54514 10.0942 6.54514 9.3502C6.54514 8.60622 6.84061 7.89277 7.36647 7.36672C7.89307 6.84067 8.60592 6.54514 9.3502 6.54514Z" fill="#E74C3C"/>
</svg>
