<svg width="26" height="21" viewBox="0 0 26 21" fill="none" xmlns="http://www.w3.org/2000/svg">
<path d="M25.8271 2.49293C24.8597 2.92081 23.8338 3.20183 22.7835 3.32667C23.8906 2.66454 24.7192 1.62246 25.1149 0.394633C24.0759 1.01297 22.9368 1.44631 21.7495 1.68073C20.952 0.827444 19.895 0.261543 18.7427 0.0710007C17.5903 -0.119541 16.4075 0.0759504 15.3777 0.627085C14.348 1.17822 13.5292 2.05412 13.0486 3.11861C12.568 4.1831 12.4526 5.37654 12.7203 6.51339C10.6132 6.40779 8.55195 5.86024 6.67027 4.9063C4.78859 3.95237 3.12858 2.61337 1.79802 0.976222C1.32703 1.7852 1.07948 2.70482 1.08083 3.64091C1.08083 5.47818 2.01591 7.10132 3.43761 8.05163C2.59627 8.02515 1.77349 7.79794 1.03774 7.38895V7.45484C1.03799 8.67846 1.46143 9.86437 2.23625 10.8114C3.01098 11.7585 4.08954 12.4085 5.28881 12.6512C4.50777 12.8628 3.68886 12.894 2.89405 12.7424C3.23215 13.7957 3.89122 14.7168 4.77893 15.3768C5.66664 16.0369 6.73856 16.4028 7.8445 16.4233C6.74528 17.2866 5.48671 17.9248 4.1407 18.3013C2.79468 18.6779 1.3876 18.7854 0 18.6178C2.42231 20.1757 5.24202 21.0027 8.12204 21C17.8697 21 23.2004 12.9248 23.2004 5.92166C23.2004 5.69359 23.194 5.46298 23.1839 5.23744C24.2215 4.48753 25.1169 3.55857 25.8283 2.49419L25.8271 2.49293Z" fill="white"/>
</svg>
